# exported with NifSkope

mtllib eye.mtl

# Tri Shorts 1.001 1

g Tri Shorts 1.001 1
usemtl Material.000001

v 2.2353975772857666 7.2580890655517578 120.23370361328125
v 1.8993639945983887 7.3448162078857422 120.20661926269531
v 1.8993639945983887 7.1852350234985352 120.48531341552734
v 1.5633306503295898 7.2580890655517578 120.23370361328125
v 1.5843732357025146 7.3230857849121094 119.89237976074219
v 1.3173367977142334 7.1450834274291992 119.90469360351563
v 1.5633306503295898 7.211726188659668 119.56324768066406
v 1.2744078636169434 6.9436244964599609 119.56646728515625
v 1.5480568408966064 6.9247465133666992 119.29347229003906
v 1.4508546590805054 6.518134593963623 119.27519989013672
v 1.8993639945983887 6.8262200355529785 119.16445922851563
v 2.056859016418457 6.5098190307617188 119.15495300292969
v 2.2506706714630127 6.9247465133666992 119.29347229003906
v 2.5706055164337158 6.5335006713867188 119.49739074707031
v 2.5243191719055176 6.9436244964599609 119.56646728515625
v 2.6598186492919922 6.8786821365356445 119.92311096191406
v 2.4813911914825439 7.1450834274291992 119.90469360351563
v 2.5243191719055176 6.9920973777770996 120.26741790771484
v 2.2506706714630127 7.0109753608703613 120.54042053222656
v 1.8993639945983887 6.931145191192627 120.6817626953125
v 1.5480568408966064 7.0109753608703613 120.54042053222656
v 1.7418689727783203 6.6190652847290039 120.7347412109375
v 1.2281224727630615 6.5953836441040039 120.39228820800781
v 2.2353975772857666 7.211726188659668 119.56324768066406
v 1.8993639945983887 7.1049313545227051 119.32405090332031
v 1.8993639945983887 7.3013544082641602 119.57813262939453
v 2.2143547534942627 7.3230857849121094 119.89237976074219
v 1.8993639945983887 7.3855915069580078 119.8880615234375
v 2.6911473274230957 6.5753073692321777 120.10196685791016
v 2.3478724956512451 6.6107492446899414 120.61447906494141
v 1.2744078636169434 6.9920973777770996 120.26741790771484
v 1.1389086246490479 6.8786821365356445 119.92311096191406
v 1.1075807809829712 6.5535764694213867 119.78771209716797
v -1.5992789268493652 7.2614836692810059 120.28278350830078
v -1.9353122711181641 7.3482093811035156 120.25569915771484
v -1.9353122711181641 7.1886296272277832 120.53440093994141
v -2.271345853805542 7.2614836692810059 120.28278350830078
v -2.2503032684326172 7.326479434967041 119.94146728515625
v -2.5173397064208984 7.1484775543212891 119.95377349853516
v -2.271345853805542 7.2151193618774414 119.61231994628906
v -2.5602686405181885 6.9470186233520508 119.61554718017578
v -2.2866196632385254 6.9281396865844727 119.34255981445313
v -2.3838214874267578 6.5215282440185547 119.32427215576172
v -1.9353122711181641 6.8296141624450684 119.21354675292969
v -1.7778172492980957 6.5132131576538086 119.20402526855469
v -1.5840052366256714 6.9281396865844727 119.34255981445313
v -1.2640714645385742 6.5368943214416504 119.54647827148438
v -1.3103562593460083 6.947019100189209 119.61554718017578
v -1.174857497215271 6.8820762634277344 119.97219085693359
v -1.3532853126525879 7.1484775543212891 119.95377349853516
v -1.3103562593460083 6.9954910278320313 120.31649780273438
v -1.5840052366256714 7.0143680572509766 120.58948516845703
v -1.9353122711181641 6.9345383644104004 120.7308349609375
v -2.2866196632385254 7.0143680572509766 120.58948516845703
v -2.0928080081939697 6.6224584579467773 120.7838134765625
v -2.6065540313720703 6.5987772941589355 120.44136047363281
v -1.5992789268493652 7.2151193618774414 119.61231994628906
v -1.9353122711181641 7.1083250045776367 119.37313079833984
v -1.9353122711181641 7.3047490119934082 119.62721252441406
v -1.62032151222229 7.326479434967041 119.94146728515625
v -1.9353122711181641 7.3889856338500977 119.93714141845703
v -1.4868037700653076 6.6141438484191895 120.66356658935547
v -1.1435297727584839 6.5787010192871094 120.15103149414063
v -2.5602686405181885 6.9954900741577148 120.31649780273438
v -2.6957676410675049 6.8820762634277344 119.97219085693359
v -2.7270951271057129 6.5569705963134766 119.83679962158203
vt 0.38610261678695679 0.6099439263343811
vt 0.50079017877578735 0.60441893339157104
vt 0.50194501876831055 0.70835280418395996
vt 0.6163022518157959 0.6070747971534729
vt 0.61219489574432373 0.49234211444854736
vt 0.71522289514541626 0.49081039428710938
vt 0.61287623643875122 0.37693113088607788
vt 0.74390995502471924 0.350486159324646
vt 0.63588380813598633 0.2425154447555542
vt 0.73084169626235962 0.12683916091918945
vt 0.49565768241882324 0.17544263601303101
vt 0.4057459831237793 0.069347918033599854
vt 0.35650646686553955 0.24912059307098389
vt 0.13274949789047241 0.26205146312713623
vt 0.24827092885971069 0.35704237222671509
vt 0.18106317520141602 0.49732202291488647
vt 0.28375661373138428 0.49604785442352295
vt 0.2550690770149231 0.63638883829116821
vt 0.36309489607810974 0.74436038732528687
vt 0.50333994626998901 0.81143257021903992
vt 0.64249205589294434 0.73773652315139771
vt 0.59323287010192871 0.9175274670124054
vt 0.86622941493988037 0.72482427954673767
vt 0.38267657160758972 0.37980043888092041
vt 0.49703347682952881 0.27852284908294678
vt 0.49818909168243408 0.38243800401687622
vt 0.38678383827209473 0.49453568458557129
vt 0.49949872493743896 0.49343913793563843
vt 0.075141012668609619 0.58722120523452759
vt 0.26813730597496033 0.8600362241268158
vt 0.75070786476135254 0.62983372807502747
vt 0.81793463230133057 0.48955619335174561
vt 0.92383837699890137 0.39963573217391968
vt 0.38610261678695679 0.6099439263343811
vt 0.50079017877578735 0.60441893339157104
vt 0.50194501876831055 0.70835280418395996
vt 0.6163022518157959 0.6070747971534729
vt 0.61219489574432373 0.49234211444854736
vt 0.71522289514541626 0.49081039428710938
vt 0.61287623643875122 0.37693113088607788
vt 0.74390995502471924 0.350486159324646
vt 0.63588380813598633 0.2425154447555542
vt 0.73084169626235962 0.12683916091918945
vt 0.49565768241882324 0.17544263601303101
vt 0.4057459831237793 0.069347918033599854
vt 0.35650646686553955 0.24912059307098389
vt 0.13274949789047241 0.26205146312713623
vt 0.24827092885971069 0.35704237222671509
vt 0.18106317520141602 0.49732202291488647
vt 0.28375661373138428 0.49604785442352295
vt 0.2550690770149231 0.63638883829116821
vt 0.36309489607810974 0.74436038732528687
vt 0.50333994626998901 0.81143257021903992
vt 0.64249205589294434 0.73773652315139771
vt 0.59323287010192871 0.9175274670124054
vt 0.86622941493988037 0.72482427954673767
vt 0.38267657160758972 0.37980043888092041
vt 0.49703347682952881 0.27852284908294678
vt 0.49818909168243408 0.38243800401687622
vt 0.38678383827209473 0.49453568458557129
vt 0.49949872493743896 0.49343913793563843
vt 0.26813730597496033 0.8600362241268158
vt 0.075141012668609619 0.58722120523452759
vt 0.75070786476135254 0.62983372807502747
vt 0.81793463230133057 0.48955619335174561
vt 0.92383837699890137 0.39963573217391968
vn 0.42232227325439453 0.82926303148269653 0.36601468920707703
vn 0 0.96282476186752319 0.27012684941291809
vn 0 0.76486372947692871 0.64419209957122803
vn -0.42232227325439453 0.82926303148269653 0.36601468920707703
vn -0.33589440584182739 0.9396558403968811 -0.06497538834810257
vn -0.69542896747589111 0.71688359975814819 -0.049562323838472366
vn -0.42232775688171387 0.77098166942596436 -0.47668284177780151
vn -0.78384971618652344 0.39827284216880798 -0.47640144824981689
vn -0.42272922396659851 0.43246504664421082 -0.79641318321228027
vn -0.53531038761138916 0.074894621968269348 -0.84132850170135498
vn -0.044954638928174973 0.25440728664398193 -0.96605175733566284
vn 0.23130404949188232 0.044801998883485794 -0.97184938192367554
vn 0.4477771520614624 0.37511101365089417 -0.8116571307182312
vn 0.83416002988815308 0.095526151359081268 -0.5431867241859436
vn 0.76468360424041748 0.45604512095451355 -0.45528215169906616
vn 0.94619035720825195 0.31660738587379456 -0.066959381103515625
vn 0.69542896747589111 0.71688359975814819 -0.049562323838472366
vn 0.78384488821029663 0.46007093787193298 0.4170394241809845
vn 0.42272141575813293 0.53796184062957764 0.72931724786758423
vn 0.044954843819141388 0.38496971130371094 0.92183369398117065
vn -0.44777572154998779 0.48326936364173889 0.75229489803314209
vn -0.2313019186258316 0.17816869914531708 0.9564284086227417
vn -0.83415687084197998 0.16938281059265137 0.52487307786941528
vn 0.42232775688171387 0.77098166942596436 -0.47668284177780151
vn 0 0.66892421245574951 -0.74333059787750244
vn 0 0.91648340225219727 -0.40007266402244568
vn 0.33589440584182739 0.9396558403968811 -0.06497538834810257
vn 0 0.99761849641799927 -0.06897386908531189
vn 0.96644008159637451 0.12747718393802643 0.22303168475627899
vn 0.5353083610534668 0.18998259305953979 0.82301372289657593
vn -0.76468706130981445 0.51436918973922729 0.38817265629768372
vn -0.94619280099868774 0.32280367612838745 0.02273695170879364
vn -0.96643668413162231 0.095554143190383911 -0.23847335577011108
vn 0.42232227325439453 0.82926303148269653 0.36601468920707703
vn 0 0.96282476186752319 0.27012684941291809
vn 0 0.76486372947692871 0.64419209957122803
vn -0.42232227325439453 0.82926303148269653 0.36601468920707703
vn -0.33589506149291992 0.93965774774551392 -0.064945004880428314
vn -0.69542896747589111 0.71688359975814819 -0.049562323838472366
vn -0.42232775688171387 0.77098166942596436 -0.47668284177780151
vn -0.78384971618652344 0.39827284216880798 -0.47640144824981689
vn -0.42271894216537476 0.43245452642440796 -0.79642438888549805
vn -0.53531038761138916 0.074894621968269348 -0.84132850170135498
vn -0.044954292476177216 0.25443580746650696 -0.96604424715042114
vn 0.23130373656749725 0.044832456856966019 -0.97184807062149048
vn 0.4477771520614624 0.37511101365089417 -0.8116571307182312
vn 0.83416002988815308 0.095526151359081268 -0.5431867241859436
vn 0.76468360424041748 0.45604512095451355 -0.45528215169906616
vn 0.94619035720825195 0.31660738587379456 -0.066959381103515625
vn 0.69542896747589111 0.71688359975814819 -0.049562323838472366
vn 0.78383314609527588 0.46008196473121643 0.41704940795898438
vn 0.42273083329200745 0.53797382116317749 0.72930294275283813
vn 0.044954314827919006 0.38499569892883301 0.92182290554046631
vn -0.44777572154998779 0.48326936364173889 0.75229489803314209
vn -0.23130868375301361 0.17817389965057373 0.95642584562301636
vn -0.83415687084197998 0.16938281059265137 0.52487307786941528
vn 0.42232775688171387 0.77098166942596436 -0.47668284177780151
vn 0 0.66890907287597656 -0.74334424734115601
vn 0 0.91648340225219727 -0.40007266402244568
vn 0.33589506149291992 0.93965774774551392 -0.064945004880428314
vn 0 0.99761849641799927 -0.06897386908531189
vn 0.53530526161193848 0.19001200795173645 0.8230089545249939
vn 0.96644008159637451 0.12747718393802643 0.22303168475627899
vn -0.76468706130981445 0.51436918973922729 0.38817265629768372
vn -0.94619280099868774 0.32280367612838745 0.02273695170879364
vn -0.96644371747970581 0.095554843544960022 -0.23844458162784576
f 30/30/30 20/20/20 22/22/22
f 57/57/57 60/60/60 50/50/50
f 50/50/50 60/60/60 34/34/34
f 60/60/60 35/35/35 34/34/34
f 34/34/34 35/35/35 36/36/36
f 35/35/35 37/37/37 36/36/36
f 36/36/36 37/37/37 54/54/54
f 37/37/37 64/64/64 54/54/54
f 54/54/54 64/64/64 56/56/56
f 64/64/64 65/65/65 56/56/56
f 56/56/56 65/65/65 66/66/66
f 65/65/65 41/41/41 66/66/66
f 66/66/66 41/41/41 43/43/43
f 41/41/41 42/42/42 43/43/43
f 43/43/43 42/42/42 44/44/44
f 42/42/42 58/58/58 44/44/44
f 44/44/44 58/58/58 46/46/46
f 58/58/58 57/57/57 46/46/46
f 46/46/46 57/57/57 48/48/48
f 57/57/57 50/50/50 48/48/48
f 48/48/48 50/50/50 49/49/49
f 50/50/50 51/51/51 49/49/49
f 49/49/49 51/51/51 63/63/63
f 51/51/51 62/62/62 63/63/63
f 58/58/58 42/42/42 40/40/40
f 42/42/42 41/41/41 40/40/40
f 40/40/40 41/41/41 39/39/39
f 41/41/41 65/65/65 39/39/39
f 39/39/39 65/65/65 64/64/64
f 64/64/64 37/37/37 39/39/39
f 37/37/37 38/38/38 39/39/39
f 39/39/39 38/38/38 40/40/40
f 38/38/38 59/59/59 40/40/40
f 40/40/40 59/59/59 58/58/58
f 59/59/59 57/57/57 58/58/58
f 57/57/57 59/59/59 60/60/60
f 60/60/60 59/59/59 61/61/61
f 59/59/59 38/38/38 61/61/61
f 61/61/61 38/38/38 35/35/35
f 38/38/38 37/37/37 35/35/35
f 61/61/61 35/35/35 60/60/60
f 1/1/1 2/2/2 3/3/3
f 3/3/3 2/2/2 4/4/4
f 2/2/2 5/5/5 4/4/4
f 4/4/4 5/5/5 6/6/6
f 5/5/5 7/7/7 6/6/6
f 6/6/6 7/7/7 8/8/8
f 7/7/7 9/9/9 8/8/8
f 8/8/8 9/9/9 10/10/10
f 9/9/9 11/11/11 10/10/10
f 10/10/10 11/11/11 12/12/12
f 11/11/11 13/13/13 12/12/12
f 12/12/12 13/13/13 14/14/14
f 13/13/13 15/15/15 14/14/14
f 14/14/14 15/15/15 16/16/16
f 15/15/15 17/17/17 16/16/16
f 16/16/16 17/17/17 18/18/18
f 17/17/17 1/1/1 18/18/18
f 18/18/18 1/1/1 19/19/19
f 1/1/1 3/3/3 19/19/19
f 19/19/19 3/3/3 20/20/20
f 3/3/3 21/21/21 20/20/20
f 20/20/20 21/21/21 22/22/22
f 21/21/21 23/23/23 22/22/22
f 17/17/17 15/15/15 24/24/24
f 15/15/15 13/13/13 24/24/24
f 24/24/24 13/13/13 25/25/25
f 13/13/13 11/11/11 25/25/25
f 25/25/25 11/11/11 9/9/9
f 9/9/9 7/7/7 25/25/25
f 7/7/7 26/26/26 25/25/25
f 25/25/25 26/26/26 24/24/24
f 26/26/26 27/27/27 24/24/24
f 24/24/24 27/27/27 17/17/17
f 27/27/27 1/1/1 17/17/17
f 1/1/1 27/27/27 2/2/2
f 2/2/2 27/27/27 28/28/28
f 27/27/27 26/26/26 28/28/28
f 28/28/28 26/26/26 5/5/5
f 26/26/26 7/7/7 5/5/5
f 28/28/28 5/5/5 2/2/2
f 56/56/56 55/55/55 54/54/54
f 54/54/54 55/55/55 53/53/53
f 55/55/55 62/62/62 53/53/53
f 53/53/53 62/62/62 52/52/52
f 62/62/62 51/51/51 52/52/52
f 52/52/52 51/51/51 34/34/34
f 51/51/51 50/50/50 34/34/34
f 54/54/54 53/53/53 36/36/36
f 53/53/53 52/52/52 36/36/36
f 36/36/36 52/52/52 34/34/34
f 49/49/49 47/47/47 48/48/48
f 48/48/48 47/47/47 46/46/46
f 47/47/47 45/45/45 46/46/46
f 46/46/46 45/45/45 44/44/44
f 45/45/45 43/43/43 44/44/44
f 3/3/3 4/4/4 21/21/21
f 4/4/4 31/31/31 21/21/21
f 21/21/21 31/31/31 23/23/23
f 31/31/31 32/32/32 23/23/23
f 23/23/23 32/32/32 33/33/33
f 32/32/32 8/8/8 33/33/33
f 33/33/33 8/8/8 10/10/10
f 4/4/4 6/6/6 31/31/31
f 31/31/31 6/6/6 32/32/32
f 6/6/6 8/8/8 32/32/32
f 14/14/14 16/16/16 29/29/29
f 16/16/16 18/18/18 29/29/29
f 29/29/29 18/18/18 30/30/30
f 18/18/18 19/19/19 30/30/30
f 30/30/30 19/19/19 20/20/20
f 49/49/49 63/63/63 47/47/47
